<?xml version="1.0"?><svg width="490" height="380" xmlns="http://www.w3.org/2000/svg">
 <title>balloon pop</title>
 <g>
  <title>Layer 1</title>
  <path id="path599" d="m297.006531,288.775177l57.294922,53.845337l-26.316895,-92.847107l99.50589,22.912628l-58.918488,-51.551331l109.980042,0l-102.124176,-31.50473l90.340912,-39.990524l-76.070404,-16.124954l39.423492,-49.350479l-62.125275,9.22023l22.833893,-62.703737l-59.21875,38.896669l-13.920044,-57.781349l-42.091949,51.7854c0,-3.596859 -24.706436,-51.050981 -26.015564,-51.050981c-1.309128,0 -25.46524,50.084889 -25.46524,50.084889l-44.083527,-46.255169l-11.063736,54.416161l-41.294914,-46.59193c0,0 -0.902962,52.051701 -3.521233,52.051701c-2.618256,0 -62.532417,-32.271381 -62.532417,-32.271381c0,0 14.376411,59.281231 14.376411,60.713047c0,1.431816 -65.006452,-10.326035 -65.006452,-10.326035l53.536763,42.761017l-56.731523,19.512817c0,0 47.553751,36.207397 46.244401,37.639206c-1.309242,1.431824 -42.041211,37.824295 -42.041211,37.824295c0,0 72.599507,-1.79126 71.29038,-1.79126c-0.144119,1.198959 -69.41764,54.542755 -69.41764,55.974579c0,1.431793 75.375869,-19.081726 75.375869,-19.081726l-50.78759,74.533234l84.684143,-60.445557l-17.897652,65.60318l49.896538,-41.189453l-13.537857,35.659241l64.770813,-31.130951l13.289703,64.369141l27.284607,-65.067719l24.406174,43.693665l25.647583,-64.440063z" stroke-linejoin="round" stroke-width="10" stroke="#000000" fill-rule="evenodd" fill="#FF0000"/>
  <text fill="#000000" stroke="#000000" stroke-width="0" stroke-dasharray="null" stroke-linejoin="round" stroke-linecap="null" x="209.321074" y="197.776747" id="svg_1" font-size="85" font-family="Arial" text-anchor="middle" xml:space="preserve" transform="rotate(-11.855682373046875 224.87544250488247,173.1514587402343) matrix(1.39655,0,0,1.28742,-67.0035,-43.1351) ">POP!</text>
 </g>
</svg>